<svg width="20" height="24" viewBox="0 0 20 24" fill="none" xmlns="http://www.w3.org/2000/svg">
<path d="M15.0605 19.0781C15.0723 19.1016 15.0781 19.1309 15.0781 19.166C15.0781 19.2129 15.084 19.248 15.0957 19.2715C15.1777 19.377 15.2188 19.4355 15.2188 19.4473C15.2188 19.459 15.2246 19.4766 15.2363 19.5C15.2949 19.5703 15.3184 19.623 15.3066 19.6582C15.3066 19.7051 15.3301 19.7402 15.377 19.7637C15.3652 19.8691 15.3887 19.957 15.4473 20.0273C15.5176 20.0977 15.5527 20.1973 15.5527 20.3262C15.623 20.502 15.6992 20.6309 15.7812 20.7129C15.793 20.7832 15.8164 20.8301 15.8516 20.8535C15.8867 20.8887 15.8984 20.9414 15.8867 21.0117C15.9922 21.1523 16.0684 21.2285 16.1152 21.2402C16.1387 21.3574 16.1621 21.4219 16.1855 21.4336C16.2207 21.4453 16.25 21.457 16.2734 21.4688L16.4492 21.6973C16.5078 21.8145 16.5605 21.8613 16.6074 21.8379C16.6543 21.9082 16.6836 21.9492 16.6953 21.9609C16.7188 21.9844 16.748 21.9902 16.7832 21.9785C16.877 22.0488 16.9355 22.0957 16.959 22.1191C16.9824 22.1543 17.0059 22.1836 17.0293 22.207C17.0996 22.207 17.1523 22.2188 17.1875 22.2422C17.2344 22.2656 17.293 22.2773 17.3633 22.2773C17.4688 22.3125 17.5215 22.3418 17.5215 22.3652C17.5215 22.3887 17.5332 22.4004 17.5566 22.4004C17.627 22.4238 17.6797 22.4297 17.7148 22.418C17.75 22.418 17.7676 22.4297 17.7676 22.4531C17.8379 22.418 17.9023 22.4121 17.9609 22.4355C18.0195 22.459 18.0781 22.459 18.1367 22.4355C18.2773 22.4707 18.3652 22.4766 18.4004 22.4531C18.4473 22.4297 18.4941 22.4121 18.541 22.4004C18.6582 22.3887 18.7285 22.377 18.752 22.3652C18.7871 22.3535 18.834 22.3359 18.8926 22.3125C18.9863 22.3008 19.0391 22.2949 19.0508 22.2949C19.0742 22.3066 19.0977 22.3125 19.1211 22.3125C19.2148 22.2891 19.2734 22.2773 19.2969 22.2773C19.3203 22.2891 19.3496 22.2891 19.3848 22.2773C19.4082 22.2539 19.4316 22.2246 19.4551 22.1895C19.4785 22.166 19.502 22.1367 19.5254 22.1016C19.5605 22.0781 19.5898 22.0547 19.6133 22.0312C19.6484 22.0195 19.6953 22.0254 19.7539 22.0488C19.6719 22.166 19.6367 22.2305 19.6484 22.2422C19.6719 22.2539 19.6719 22.2715 19.6484 22.2949C19.4961 22.3418 19.3789 22.3535 19.2969 22.3301L19.1035 22.4355C19.0332 22.4824 18.9863 22.5117 18.9629 22.5234C18.9395 22.5352 18.916 22.5469 18.8926 22.5586C18.7988 22.6055 18.7402 22.6406 18.7168 22.6641C18.7051 22.6875 18.6816 22.7109 18.6465 22.7344C18.5176 22.7695 18.4414 22.7871 18.418 22.7871C18.4062 22.7871 18.3887 22.793 18.3652 22.8047C18.2832 22.8047 18.2246 22.8047 18.1895 22.8047C18.1543 22.8164 18.1133 22.8281 18.0664 22.8398C17.9844 22.8984 17.9316 22.916 17.9082 22.8926C17.8965 22.8809 17.8848 22.8926 17.873 22.9277C17.8262 22.8809 17.7734 22.8633 17.7148 22.875C17.668 22.8867 17.6094 22.8809 17.5391 22.8574C17.4219 22.9395 17.334 22.9805 17.2754 22.9805C17.2285 22.9805 17.1934 22.9922 17.1699 23.0156C17.123 22.9922 17.0703 22.9688 17.0117 22.9453C16.9648 22.9336 16.9121 22.9395 16.8535 22.9629C16.7012 22.916 16.584 22.8926 16.502 22.8926C16.4199 22.9043 16.3496 22.9043 16.291 22.8926C16.1973 22.8223 16.127 22.7871 16.0801 22.7871C16.0449 22.7988 16.0156 22.7988 15.9922 22.7871C15.9336 22.7402 15.8867 22.7109 15.8516 22.6992C15.8164 22.6992 15.7988 22.6816 15.7988 22.6465C15.7402 22.6465 15.6934 22.6289 15.6582 22.5938C15.623 22.5703 15.5762 22.5469 15.5176 22.5234C15.4004 22.3711 15.3125 22.2949 15.2539 22.2949C15.1953 22.2246 15.1543 22.1836 15.1309 22.1719C15.1074 22.1602 15.084 22.1543 15.0605 22.1543C15.0254 22.0254 14.9902 21.9551 14.9551 21.9434C14.9316 21.9434 14.9082 21.9316 14.8848 21.9082C14.8379 21.8613 14.8086 21.791 14.7969 21.6973C14.7031 21.627 14.6504 21.5684 14.6387 21.5215C14.627 21.4863 14.6094 21.457 14.5859 21.4336C14.5391 21.2109 14.4805 21.0996 14.4102 21.0996C14.375 21.0059 14.3516 20.9473 14.3398 20.9238C14.3398 20.9121 14.3281 20.8945 14.3047 20.8711C14.2344 20.7422 14.1875 20.6543 14.1641 20.6074C14.1406 20.5723 14.1406 20.5371 14.1641 20.502C14.1406 20.4785 14.1172 20.4375 14.0938 20.3789C14.0703 20.332 14.0703 20.2852 14.0938 20.2383C14 20.1445 13.9473 20.0859 13.9355 20.0625C13.9238 20.0508 13.918 20.0215 13.918 19.9746C13.8945 19.834 13.8711 19.7578 13.8477 19.7461C13.8359 19.7461 13.8418 19.7285 13.8652 19.6934L13.7773 19.5176C13.7305 19.4707 13.7012 19.418 13.6895 19.3594C13.6777 19.3008 13.666 19.2363 13.6543 19.166L13.5664 18.9551C13.4961 18.9082 13.4434 18.8379 13.4082 18.7441C13.3848 18.6504 13.3613 18.5566 13.3379 18.4629C13.2676 18.2754 13.2031 18.1523 13.1445 18.0938C13.1211 18 13.1035 17.9297 13.0918 17.8828C13.0801 17.8359 13.0625 17.7832 13.0391 17.7246C12.9922 17.6309 12.9688 17.5312 12.9688 17.4258C12.9336 17.3438 12.9043 17.291 12.8809 17.2676C12.8574 17.2559 12.8457 17.2207 12.8457 17.1621C12.834 17.0918 12.8105 17.0391 12.7754 17.0039C12.7402 16.9688 12.7109 16.9219 12.6875 16.8633C12.6172 16.7109 12.5762 16.5645 12.5645 16.4238C12.4824 16.3066 12.4414 16.248 12.4414 16.248C12.4414 16.2012 12.4297 16.1602 12.4062 16.125C12.3945 16.1016 12.3887 16.0781 12.3887 16.0547C12.3652 15.9727 12.3477 15.9141 12.3359 15.8789C12.3242 15.8438 12.3066 15.8145 12.2832 15.791C12.2598 15.6973 12.2363 15.6328 12.2129 15.5977C12.2012 15.5742 12.2012 15.5449 12.2129 15.5098C12.1191 15.4277 12.0723 15.375 12.0723 15.3516C12.0723 15.293 12.0605 15.252 12.0371 15.2285C12.0254 15.2168 12.0254 15.1875 12.0371 15.1406C11.9551 15.0469 11.9082 14.9941 11.8965 14.9824C11.8965 14.9707 11.8965 14.9531 11.8965 14.9297C11.8262 14.8125 11.7793 14.7539 11.7559 14.7539C11.7441 14.7422 11.75 14.7246 11.7734 14.7012C11.7148 14.6074 11.6738 14.5547 11.6504 14.543C11.627 14.5195 11.627 14.4961 11.6504 14.4727C11.6035 14.3555 11.5566 14.2793 11.5098 14.2441C11.4629 14.1973 11.4277 14.1328 11.4043 14.0508C11.3223 13.9805 11.2812 13.916 11.2812 13.8574C11.1758 13.834 11.1172 13.8047 11.1055 13.7695C11.1055 13.7344 11.0762 13.7168 11.0176 13.7168C10.9824 13.6113 10.9531 13.5645 10.9297 13.5762C10.918 13.5762 10.9004 13.5703 10.877 13.5586C10.7949 13.4883 10.7363 13.4355 10.7012 13.4004C10.666 13.3652 10.6191 13.3418 10.5605 13.3301C10.5371 13.2598 10.502 13.2129 10.4551 13.1895C10.4082 13.166 10.373 13.125 10.3496 13.0664C10.291 13.0195 10.2383 13.002 10.1914 13.0137C10.1562 13.0137 10.1504 12.9902 10.1738 12.9434C9.92773 12.873 9.74609 12.8203 9.62891 12.7852C9.51172 12.75 9.42383 12.7383 9.36523 12.75C9.30664 12.7617 9.24805 12.7676 9.18945 12.7676C9.06055 12.7793 8.97266 12.7852 8.92578 12.7852C8.89062 12.7734 8.86133 12.7793 8.83789 12.8027C8.7207 12.8379 8.61523 12.8613 8.52148 12.873C8.42773 12.873 8.35156 12.8848 8.29297 12.9082C8.12891 12.873 8.01758 12.8555 7.95898 12.8555C7.91211 12.8438 7.88281 12.8027 7.87109 12.7324C7.87109 12.6855 7.88867 12.6504 7.92383 12.627C7.9707 12.6035 7.98828 12.5566 7.97656 12.4863C8.03516 12.4863 8.07031 12.4688 8.08203 12.4336C8.10547 12.3867 8.14062 12.3516 8.1875 12.3281C8.32812 12.2344 8.4043 12.1816 8.41602 12.1699C8.43945 12.1465 8.46289 12.123 8.48633 12.0996C8.58008 12.0762 8.66797 12.0234 8.75 11.9414C8.78516 11.9297 8.82031 11.9238 8.85547 11.9238C8.89062 11.9121 8.91992 11.8945 8.94336 11.8711C8.99023 11.8711 9.01953 11.8652 9.03125 11.8535C9.05469 11.8418 9.08984 11.8359 9.13672 11.8359C9.21875 11.7891 9.27734 11.7715 9.3125 11.7832C9.34766 11.7832 9.38281 11.7832 9.41797 11.7832C9.45312 11.7715 9.48828 11.7598 9.52344 11.748C9.55859 11.7246 9.59375 11.707 9.62891 11.6953C9.75781 11.6953 9.85156 11.7012 9.91016 11.7129C9.98047 11.7246 10.0449 11.7246 10.1035 11.7129C10.1504 11.7012 10.1914 11.6895 10.2266 11.6777C10.2617 11.666 10.291 11.6367 10.3145 11.5898C10.3848 11.5664 10.4375 11.5547 10.4727 11.5547C10.5078 11.543 10.5488 11.5254 10.5957 11.502C10.7598 11.4082 10.8828 11.3613 10.9648 11.3613C11.1523 11.291 11.2754 11.209 11.334 11.1152C11.4043 11.0918 11.4512 11.0742 11.4746 11.0625C11.5098 11.0508 11.5332 11.0332 11.5449 11.0098C11.6152 10.9863 11.6621 10.9688 11.6855 10.957C11.7207 10.9336 11.7559 10.916 11.791 10.9043C11.8848 10.8457 11.9492 10.8047 11.9844 10.7812C12.0312 10.7461 12.0547 10.6992 12.0547 10.6406C12.1836 10.5938 12.2598 10.5703 12.2832 10.5703C12.3184 10.5352 12.3652 10.5 12.4238 10.4648C12.4941 10.418 12.541 10.3652 12.5645 10.3066C12.6348 10.2949 12.6758 10.2715 12.6875 10.2363C12.6992 10.1895 12.7168 10.1484 12.7402 10.1133C12.7988 10.1016 12.8398 10.0898 12.8633 10.0781C12.8984 10.0547 12.9395 10.0312 12.9863 10.0078C13.0801 9.90234 13.1211 9.84375 13.1094 9.83203C13.1094 9.82031 13.1152 9.80859 13.127 9.79688C13.2207 9.72656 13.2617 9.68555 13.25 9.67383C13.25 9.66211 13.2559 9.65039 13.2676 9.63867C13.4316 9.52148 13.5195 9.4043 13.5312 9.28711C13.6133 9.19336 13.666 9.13477 13.6895 9.11133C13.7246 9.07617 13.7598 9.04102 13.7949 9.00586C13.8535 8.91211 13.8828 8.85938 13.8828 8.84766C13.8945 8.83594 13.9004 8.82422 13.9004 8.8125C13.9941 8.66016 14.0469 8.56055 14.0586 8.51367C14.082 8.45508 14.1055 8.39648 14.1289 8.33789C14.1758 8.23242 14.2109 8.16211 14.2344 8.12695C14.2695 8.08008 14.293 8.02734 14.3047 7.96875C14.3633 7.88672 14.4043 7.83984 14.4277 7.82812C14.4629 7.80469 14.4746 7.76367 14.4629 7.70508C14.5215 7.63477 14.5449 7.58789 14.5332 7.56445C14.5332 7.54102 14.5391 7.51758 14.5508 7.49414C14.5977 7.36523 14.6152 7.2832 14.6035 7.24805C14.6035 7.21289 14.6035 7.16602 14.6035 7.10742C14.6504 7.00195 14.6797 6.93164 14.6914 6.89648C14.7031 6.84961 14.7148 6.80273 14.7266 6.75586C14.7383 6.68555 14.7441 6.62109 14.7441 6.5625C14.7441 6.49219 14.7617 6.43359 14.7969 6.38672C14.7734 6.24609 14.7617 6.16406 14.7617 6.14062C14.7969 6.03516 14.8086 5.95898 14.7969 5.91211C14.7852 5.85352 14.7793 5.78906 14.7793 5.71875C14.791 5.625 14.791 5.57227 14.7793 5.56055C14.7676 5.53711 14.7617 5.51367 14.7617 5.49023C14.75 5.45508 14.7441 5.41992 14.7441 5.38477C14.7559 5.34961 14.7559 5.31445 14.7441 5.2793C14.7324 5.2207 14.709 5.16211 14.6738 5.10352C14.6504 5.04492 14.6445 4.98633 14.6562 4.92773C14.6445 4.74023 14.5977 4.61719 14.5156 4.55859C14.5156 4.5 14.5039 4.45898 14.4805 4.43555C14.457 4.41211 14.4277 4.38867 14.3926 4.36523C14.334 4.24805 14.293 4.1543 14.2695 4.08398C14.1523 3.93164 14.0527 3.83203 13.9707 3.78516C13.9707 3.72656 13.9531 3.69141 13.918 3.67969C13.8828 3.66797 13.8594 3.63281 13.8477 3.57422C13.8242 3.55078 13.7949 3.5332 13.7598 3.52148C13.7246 3.49805 13.7012 3.46289 13.6895 3.41602C13.6074 3.3457 13.5488 3.31055 13.5137 3.31055C13.4902 3.29883 13.4727 3.26953 13.4609 3.22266C13.3438 3.14062 13.2324 3.09375 13.127 3.08203C13.0098 3.02344 12.9277 2.9707 12.8809 2.92383C12.8457 2.87695 12.7871 2.85938 12.7051 2.87109C12.6934 2.8125 12.6582 2.77734 12.5996 2.76562C12.5527 2.75391 12.5293 2.71289 12.5293 2.64258C12.4121 2.64258 12.3359 2.63086 12.3008 2.60742C12.2773 2.58398 12.2363 2.56641 12.1777 2.55469C12.084 2.53125 12.0195 2.50781 11.9844 2.48438C11.9609 2.44922 11.9258 2.43164 11.8789 2.43164C11.8555 2.37305 11.8145 2.34375 11.7559 2.34375C11.709 2.33203 11.6738 2.30859 11.6504 2.27344C11.5918 2.28516 11.5391 2.27344 11.4922 2.23828C11.457 2.20312 11.4043 2.19141 11.334 2.20312C11.1934 2.13281 11.1055 2.09766 11.0703 2.09766C11.0469 2.08594 11.0234 2.0625 11 2.02734C10.9414 2.02734 10.8887 2.02148 10.8418 2.00977C10.8066 1.99805 10.7598 1.98633 10.7012 1.97461C10.6426 1.92773 10.5957 1.91016 10.5605 1.92188C10.5371 1.93359 10.5137 1.93945 10.4902 1.93945C10.4316 1.92773 10.373 1.91016 10.3145 1.88672C10.2559 1.86328 10.1973 1.85156 10.1387 1.85156C10.0566 1.88672 9.98047 1.89844 9.91016 1.88672C9.80469 1.86328 9.74609 1.85156 9.73438 1.85156C9.72266 1.83984 9.71094 1.83398 9.69922 1.83398C9.58203 1.81055 9.48242 1.81641 9.40039 1.85156C9.2832 1.85156 9.21875 1.85742 9.20703 1.86914C9.20703 1.88086 9.19531 1.875 9.17188 1.85156C9.00781 1.89844 8.89648 1.92188 8.83789 1.92188C8.79102 1.91016 8.73828 1.89844 8.67969 1.88672C8.55078 1.94531 8.48047 1.96875 8.46875 1.95703C8.45703 1.94531 8.43945 1.93945 8.41602 1.93945C8.29883 1.97461 8.24023 1.99219 8.24023 1.99219C8.24023 1.98047 8.23438 1.97461 8.22266 1.97461C8.21094 1.97461 8.17578 1.98633 8.11719 2.00977C8.05859 2.02148 8.01758 2.02734 7.99414 2.02734C7.86523 2.05078 7.80078 2.0625 7.80078 2.0625C7.64844 2.12109 7.52539 2.15039 7.43164 2.15039C7.38477 2.19727 7.30859 2.23242 7.20312 2.25586C7.10938 2.2793 7.02148 2.29102 6.93945 2.29102C6.91602 2.31445 6.88086 2.34375 6.83398 2.37891C6.79883 2.41406 6.75781 2.41992 6.71094 2.39648C6.58203 2.49023 6.50586 2.54297 6.48242 2.55469C6.43555 2.54297 6.40039 2.54883 6.37695 2.57227C6.36523 2.58398 6.33008 2.58398 6.27148 2.57227L6.07812 2.67773C5.97266 2.75977 5.90234 2.8125 5.86719 2.83594C5.84375 2.84766 5.80859 2.86523 5.76172 2.88867C5.5625 2.9707 5.43945 3.04102 5.39258 3.09961C5.29883 3.18164 5.24609 3.22852 5.23438 3.24023C5.22266 3.25195 5.20508 3.25195 5.18164 3.24023C5.07617 3.36914 5.01758 3.45117 5.00586 3.48633C4.92383 3.55664 4.85938 3.60352 4.8125 3.62695C4.76562 3.65039 4.73633 3.69141 4.72461 3.75C4.64258 3.75 4.58398 3.77344 4.54883 3.82031C4.52539 3.86719 4.48438 3.90234 4.42578 3.92578C4.37891 4.01953 4.33789 4.07227 4.30273 4.08398C4.2793 4.0957 4.25586 4.11328 4.23242 4.13672C4.17383 4.17188 4.12695 4.22461 4.0918 4.29492C4.05664 4.35352 4.00977 4.39453 3.95117 4.41797C3.86914 4.51172 3.82227 4.57031 3.81055 4.59375C3.81055 4.60547 3.79883 4.60547 3.77539 4.59375C3.70508 4.67578 3.66406 4.74023 3.65234 4.78711C3.65234 4.83398 3.63477 4.88086 3.59961 4.92773C3.57617 4.99805 3.55859 5.05078 3.54688 5.08594C3.53516 5.10938 3.51758 5.12695 3.49414 5.13867C3.4707 5.20898 3.43555 5.26758 3.38867 5.31445C3.35352 5.34961 3.33594 5.4082 3.33594 5.49023C3.27734 5.53711 3.23047 5.5957 3.19531 5.66602C3.17188 5.73633 3.13086 5.78906 3.07227 5.82422C3.00195 5.96484 2.94922 6.08789 2.91406 6.19336C2.87891 6.28711 2.83203 6.375 2.77344 6.45703C2.77344 6.51562 2.76758 6.55664 2.75586 6.58008C2.75586 6.60352 2.76758 6.63867 2.79102 6.68555C2.76758 6.76758 2.75586 6.83203 2.75586 6.87891C2.75586 6.91406 2.74414 6.94336 2.7207 6.9668C2.74414 7.03711 2.73828 7.125 2.70312 7.23047C2.67969 7.32422 2.67969 7.41211 2.70312 7.49414C2.73828 7.59961 2.75 7.68164 2.73828 7.74023C2.72656 7.78711 2.73828 7.82227 2.77344 7.8457C2.76172 7.97461 2.75 8.05664 2.73828 8.0918C2.73828 8.12695 2.75 8.16211 2.77344 8.19727C2.75 8.2793 2.75 8.36133 2.77344 8.44336C2.79688 8.51367 2.80273 8.5957 2.79102 8.68945C2.79102 8.7832 2.80273 8.86523 2.82617 8.93555C2.89648 9.04102 2.93164 9.10547 2.93164 9.12891C2.99023 9.24609 3.01367 9.31641 3.00195 9.33984C3.00195 9.35156 3.00195 9.36914 3.00195 9.39258C3.03711 9.47461 3.10742 9.51562 3.21289 9.51562C3.29492 9.63281 3.35352 9.69727 3.38867 9.70898C3.43555 9.7207 3.4707 9.75 3.49414 9.79688C3.54102 9.79688 3.57031 9.81445 3.58203 9.84961C3.59375 9.87305 3.62891 9.88477 3.6875 9.88477C3.74609 9.9668 3.78711 10.0137 3.81055 10.0254C3.83398 10.0371 3.86328 10.043 3.89844 10.043C3.93359 10.1016 3.98047 10.1367 4.03906 10.1484C4.10938 10.1602 4.15625 10.1895 4.17969 10.2363C4.23828 10.2363 4.28516 10.248 4.32031 10.2715C4.36719 10.2949 4.41406 10.2891 4.46094 10.2539C4.49609 10.2773 4.56641 10.3066 4.67188 10.3418C4.70703 10.3535 4.77148 10.3711 4.86523 10.3945C4.93555 10.418 4.97656 10.4824 4.98828 10.5879C4.97656 10.623 4.95898 10.6582 4.93555 10.6934C4.91211 10.7285 4.91211 10.7754 4.93555 10.834C4.81836 10.9277 4.73047 10.998 4.67188 11.0449C4.625 11.0918 4.57227 11.1387 4.51367 11.1855C4.41992 11.2559 4.36133 11.3145 4.33789 11.3613C4.31445 11.3965 4.26758 11.4082 4.19727 11.3965C4.08008 11.4551 3.99805 11.4727 3.95117 11.4492C3.9043 11.4727 3.86328 11.4727 3.82812 11.4492C3.80469 11.4141 3.76367 11.4023 3.70508 11.4141C3.61133 11.3672 3.55859 11.3379 3.54688 11.3262C3.54688 11.3027 3.53516 11.2852 3.51172 11.2734C3.45312 11.2617 3.40039 11.25 3.35352 11.2383C3.30664 11.2266 3.25391 11.2148 3.19531 11.2031C3.13672 11.1797 3.08398 11.1621 3.03711 11.1504C3.00195 11.1387 2.9668 11.1094 2.93164 11.0625C2.86133 11.0273 2.80273 11.0039 2.75586 10.9922C2.70898 10.9805 2.69141 10.9453 2.70312 10.8867C2.60938 10.8281 2.55664 10.793 2.54492 10.7812C2.5332 10.7578 2.52734 10.7344 2.52734 10.7109C2.46875 10.7227 2.43359 10.7168 2.42188 10.6934C2.41016 10.6699 2.38086 10.6582 2.33398 10.6582C2.31055 10.5996 2.28125 10.5645 2.24609 10.5527C2.21094 10.5293 2.18164 10.4941 2.1582 10.4473C2.05273 10.3066 1.96484 10.207 1.89453 10.1484C1.82422 10.0898 1.7832 9.99609 1.77148 9.86719C1.74805 9.82031 1.72461 9.7793 1.70117 9.74414C1.67773 9.69727 1.66016 9.64453 1.64844 9.58594C1.625 9.52734 1.61328 9.46875 1.61328 9.41016C1.61328 9.35156 1.60742 9.29297 1.5957 9.23438C1.56055 9.11719 1.54883 9.04102 1.56055 9.00586C1.56055 8.95898 1.54883 8.91797 1.52539 8.88281C1.54883 8.74219 1.55469 8.64258 1.54297 8.58398C1.51953 8.52539 1.51953 8.48438 1.54297 8.46094C1.50781 8.34375 1.48438 8.2793 1.47266 8.26758C1.51953 8.17383 1.52539 8.0625 1.49023 7.93359C1.45508 7.80469 1.47266 7.69336 1.54297 7.59961C1.51953 7.54102 1.51953 7.49414 1.54297 7.45898C1.55469 7.42383 1.54883 7.38281 1.52539 7.33594C1.58398 7.17188 1.625 7.08398 1.64844 7.07227C1.71875 6.91992 1.75391 6.82031 1.75391 6.77344C1.75391 6.72656 1.7832 6.69141 1.8418 6.66797C1.83008 6.60938 1.83594 6.56836 1.85938 6.54492C1.87109 6.52148 1.88281 6.48633 1.89453 6.43945C1.94141 6.35742 1.98828 6.25781 2.03516 6.14062C2.11719 6.03516 2.1582 5.96484 2.1582 5.92969C2.1582 5.89453 2.16992 5.85938 2.19336 5.82422C2.25195 5.71875 2.28711 5.66016 2.29883 5.64844C2.32227 5.61328 2.3457 5.58398 2.36914 5.56055C2.39258 5.53711 2.41602 5.51367 2.43945 5.49023C2.47461 5.38477 2.50391 5.32031 2.52734 5.29688C2.55078 5.26172 2.58008 5.23242 2.61523 5.20898C2.66211 5.08008 2.73242 4.98047 2.82617 4.91016C2.87305 4.78125 2.89648 4.7168 2.89648 4.7168C2.9082 4.7168 2.91406 4.71094 2.91406 4.69922C3.01953 4.61719 3.07227 4.57031 3.07227 4.55859C3.08398 4.53516 3.10742 4.52344 3.14258 4.52344C3.25977 4.42969 3.33594 4.35352 3.37109 4.29492C3.40625 4.22461 3.45898 4.17188 3.5293 4.13672C3.59961 4.06641 3.63477 4.01953 3.63477 3.99609C3.63477 3.96094 3.6582 3.94922 3.70508 3.96094C3.7168 3.92578 3.73438 3.89648 3.75781 3.87305C3.78125 3.84961 3.79883 3.82031 3.81055 3.78516C3.9043 3.76172 3.97461 3.72656 4.02148 3.67969C4.06836 3.62109 4.10938 3.5625 4.14453 3.50391C4.20312 3.49219 4.25 3.46875 4.28516 3.43359C4.33203 3.39844 4.37305 3.35742 4.4082 3.31055C4.47852 3.25195 4.51953 3.2168 4.53125 3.20508C4.55469 3.18164 4.57812 3.16406 4.60156 3.15234C4.63672 3.12891 4.66016 3.10547 4.67188 3.08203C4.69531 3.04688 4.73047 3.02344 4.77734 3.01172C4.88281 2.91797 4.95898 2.83594 5.00586 2.76562C5.06445 2.75391 5.11133 2.73047 5.14648 2.69531C5.18164 2.64844 5.22852 2.61328 5.28711 2.58984L5.48047 2.50195C5.51562 2.4668 5.5625 2.4375 5.62109 2.41406C5.67969 2.39062 5.7207 2.35547 5.74414 2.30859C5.80273 2.28516 5.86133 2.26172 5.91992 2.23828C5.97852 2.21484 6.01953 2.17383 6.04297 2.11523C6.10156 2.11523 6.13672 2.10938 6.14844 2.09766C6.17188 2.07422 6.19531 2.05078 6.21875 2.02734C6.27734 2.02734 6.32422 2.00977 6.35938 1.97461C6.40625 1.92773 6.45898 1.91602 6.51758 1.93945C6.57617 1.9043 6.62305 1.875 6.6582 1.85156C6.70508 1.81641 6.74609 1.78711 6.78125 1.76367C6.88672 1.70508 6.94531 1.67578 6.95703 1.67578C7.03906 1.66406 7.0918 1.65234 7.11523 1.64062C7.15039 1.61719 7.18555 1.61133 7.2207 1.62305C7.2793 1.56445 7.34375 1.52344 7.41406 1.5C7.49609 1.47656 7.57812 1.45312 7.66016 1.42969C7.80078 1.38281 7.87695 1.37109 7.88867 1.39453C7.90039 1.40625 7.91797 1.40625 7.94141 1.39453C8.05859 1.33594 8.11719 1.30664 8.11719 1.30664C8.17578 1.24805 8.24023 1.21289 8.31055 1.20117C8.35742 1.29492 8.39258 1.33594 8.41602 1.32422C8.45117 1.30078 8.48633 1.28906 8.52148 1.28906C8.60352 1.24219 8.67969 1.21289 8.75 1.20117C8.82031 1.18945 8.87891 1.19531 8.92578 1.21875C9.03125 1.19531 9.11914 1.17188 9.18945 1.14844C9.27148 1.125 9.3418 1.10742 9.40039 1.0957C9.49414 1.06055 9.54102 1.03711 9.54102 1.02539C9.54102 1.01367 9.55273 1.00781 9.57617 1.00781C9.59961 1.00781 9.62891 1.01367 9.66406 1.02539C9.71094 1.02539 9.75781 1.02539 9.80469 1.02539C9.95703 0.978516 10.0742 0.949219 10.1562 0.9375C10.25 0.925781 10.3262 0.9375 10.3848 0.972656C10.5605 0.9375 10.6543 0.931641 10.666 0.955078C10.7246 0.919922 10.7891 0.919922 10.8594 0.955078C10.9297 0.978516 10.9941 0.990234 11.0527 0.990234C11.1934 1.00195 11.2754 1.00781 11.2988 1.00781C11.3223 0.996094 11.3516 0.984375 11.3867 0.972656C11.4102 0.996094 11.4336 1.01367 11.457 1.02539C11.4922 1.03711 11.5215 1.06055 11.5449 1.0957C11.7207 1.1543 11.832 1.18359 11.8789 1.18359C11.9375 1.17188 11.9785 1.19531 12.002 1.25391C12.0605 1.26562 12.1074 1.2832 12.1426 1.30664C12.1777 1.31836 12.2246 1.33008 12.2832 1.3418C12.4473 1.38867 12.5703 1.43555 12.6523 1.48242C12.7344 1.5293 12.834 1.56445 12.9512 1.58789C13.0801 1.64648 13.1504 1.6875 13.1621 1.71094C13.1738 1.72266 13.1914 1.74023 13.2148 1.76367C13.2734 1.75195 13.3203 1.76367 13.3555 1.79883C13.3906 1.82227 13.4375 1.83398 13.4961 1.83398C13.543 1.89258 13.5723 1.93359 13.584 1.95703C13.5957 1.98047 13.6133 1.99219 13.6367 1.99219C13.7188 2.00391 13.7656 2.02148 13.7773 2.04492C13.8008 2.06836 13.8301 2.06836 13.8652 2.04492C13.877 2.10352 13.9004 2.13867 13.9355 2.15039C13.9707 2.16211 14 2.19141 14.0234 2.23828C14.1055 2.29688 14.1816 2.33789 14.252 2.36133C14.3223 2.37305 14.3691 2.41406 14.3926 2.48438C14.5215 2.53125 14.5859 2.56641 14.5859 2.58984C14.5977 2.61328 14.6152 2.61328 14.6387 2.58984C14.7207 2.67188 14.7734 2.73633 14.7969 2.7832C14.832 2.83008 14.8789 2.85938 14.9375 2.87109C14.9609 2.94141 15.0078 2.98828 15.0781 3.01172C15.0898 3.07031 15.1191 3.11133 15.166 3.13477C15.2129 3.1582 15.248 3.19922 15.2715 3.25781C15.3184 3.28125 15.3535 3.31641 15.377 3.36328C15.4121 3.39844 15.4473 3.42773 15.4824 3.45117C15.541 3.5332 15.582 3.60352 15.6055 3.66211C15.6289 3.7207 15.6641 3.76758 15.7109 3.80273C15.7578 3.93164 15.7871 4.00781 15.7988 4.03125C15.8223 4.05469 15.8398 4.07812 15.8516 4.10156C15.8867 4.23047 15.9102 4.30078 15.9219 4.3125C15.9336 4.32422 15.9395 4.3418 15.9395 4.36523C15.9512 4.42383 15.9629 4.4707 15.9746 4.50586C15.998 4.5293 16.0039 4.55273 15.9922 4.57617C15.9805 4.7168 15.9746 4.81055 15.9746 4.85742C15.9863 4.89258 15.998 4.93359 16.0098 4.98047C15.998 5.09766 16.0098 5.19141 16.0449 5.26172C16.0801 5.33203 16.0918 5.40234 16.0801 5.47266C16.0801 5.60156 16.0801 5.70117 16.0801 5.77148C16.0801 5.83008 16.0742 5.90625 16.0625 6C16.0625 6.09375 16.0566 6.1582 16.0449 6.19336C16.0332 6.28711 16.0215 6.35156 16.0098 6.38672C15.998 6.41016 15.998 6.43945 16.0098 6.47461C15.9863 6.5918 15.9688 6.66211 15.957 6.68555C15.9453 6.70898 15.9453 6.75 15.957 6.80859C15.9336 6.83203 15.916 6.87891 15.9043 6.94922C15.8926 7.00781 15.875 7.06055 15.8516 7.10742C15.8398 7.14258 15.8281 7.17773 15.8164 7.21289C15.8047 7.24805 15.7988 7.2832 15.7988 7.31836C15.7637 7.3418 15.7344 7.37695 15.7109 7.42383C15.6992 7.45898 15.6816 7.49414 15.6582 7.5293C15.6348 7.64648 15.6113 7.7168 15.5879 7.74023C15.5762 7.75195 15.5586 7.75781 15.5352 7.75781C15.4766 7.93359 15.4297 8.05664 15.3945 8.12695C15.3711 8.18555 15.3359 8.25 15.2891 8.32031C15.2188 8.42578 15.166 8.49023 15.1309 8.51367C15.1074 8.53711 15.084 8.56641 15.0605 8.60156C15.0605 8.68359 15.0371 8.74805 14.9902 8.79492C14.9668 8.83008 14.9434 8.87109 14.9199 8.91797C14.8965 8.95312 14.8555 8.98242 14.7969 9.00586C14.7031 9.11133 14.6504 9.17578 14.6387 9.19922C14.627 9.22266 14.6211 9.24609 14.6211 9.26953C14.5625 9.29297 14.5215 9.33398 14.498 9.39258C14.4746 9.43945 14.4395 9.48047 14.3926 9.51562C14.3223 9.57422 14.2637 9.63867 14.2168 9.70898C14.1816 9.76758 14.123 9.81445 14.041 9.84961C13.9824 9.9082 13.9414 9.95508 13.918 9.99023C13.9062 10.0254 13.8887 10.0547 13.8652 10.0781C13.748 10.1484 13.6836 10.2012 13.6719 10.2363C13.6719 10.2598 13.6484 10.2656 13.6016 10.2539C13.5781 10.3125 13.5371 10.3535 13.4785 10.377C13.4316 10.4004 13.3789 10.4297 13.3203 10.4648C13.2148 10.5586 13.1562 10.6172 13.1445 10.6406C13.1328 10.6523 13.1152 10.6699 13.0918 10.6934L12.8984 10.7637C12.8984 10.8105 12.875 10.8398 12.8281 10.8516C12.7812 10.8516 12.7578 10.8809 12.7578 10.9395C12.6406 10.9746 12.5703 11.0215 12.5469 11.0801C12.5 11.0918 12.459 11.1094 12.4238 11.1328C12.4004 11.1445 12.3711 11.1562 12.3359 11.168C12.2305 11.2617 12.1719 11.3086 12.1602 11.3086C12.1602 11.2969 12.1543 11.291 12.1426 11.291C12.0488 11.373 11.9844 11.4199 11.9492 11.4316C11.9258 11.4434 11.9023 11.4492 11.8789 11.4492C11.7852 11.5195 11.7266 11.5605 11.7031 11.5723C11.6914 11.5723 11.6855 11.584 11.6855 11.6074C11.6152 11.6309 11.5742 11.6543 11.5625 11.6777C11.5508 11.6895 11.5391 11.707 11.5273 11.7305C11.4219 11.7305 11.3516 11.7656 11.3164 11.8359C11.2227 11.8242 11.1641 11.8418 11.1406 11.8887C11.1172 11.9355 11.0703 11.9707 11 11.9941C11.0234 12.0293 11.0527 12.0469 11.0879 12.0469C11.1348 12.0469 11.1758 12.0586 11.2109 12.082C11.3281 12.1641 11.4043 12.2285 11.4395 12.2754C11.4746 12.3105 11.5273 12.334 11.5977 12.3457C11.6445 12.4512 11.7148 12.5098 11.8086 12.5215C11.8438 12.627 11.9141 12.6973 12.0195 12.7324C12.0312 12.8027 12.0723 12.8555 12.1426 12.8906C12.2129 12.9141 12.2363 12.9609 12.2129 13.0312C12.2715 13.043 12.3184 13.0664 12.3535 13.1016C12.3887 13.1367 12.4355 13.166 12.4941 13.1895C12.5645 13.3418 12.6465 13.4531 12.7402 13.5234C12.7988 13.6406 12.834 13.7051 12.8457 13.7168C12.9277 13.8574 12.9688 13.9395 12.9688 13.9629C12.9805 13.9746 12.9863 13.9922 12.9863 14.0156C13.0332 14.0391 13.0625 14.0801 13.0742 14.1387C13.0859 14.1973 13.1152 14.2383 13.1621 14.2617C13.209 14.4258 13.2441 14.5195 13.2676 14.543C13.291 14.5547 13.3145 14.5723 13.3379 14.5957C13.3496 14.6777 13.3555 14.7363 13.3555 14.7715C13.3555 14.8066 13.3672 14.8418 13.3906 14.877C13.4375 14.9707 13.4668 15.0352 13.4785 15.0703C13.502 15.1055 13.5254 15.1348 13.5488 15.1582C13.5723 15.1934 13.584 15.2227 13.584 15.2461C13.5957 15.2812 13.625 15.3105 13.6719 15.334C13.707 15.4746 13.7188 15.5508 13.707 15.5625C13.707 15.5859 13.707 15.6094 13.707 15.6328C13.7188 15.7266 13.7598 15.791 13.8301 15.8262C13.8535 15.8848 13.8652 15.9375 13.8652 15.9844C13.8652 16.0312 13.8945 16.0723 13.9531 16.1074C13.9531 16.1777 13.9648 16.2363 13.9883 16.2832C14.0117 16.3418 14.0293 16.4121 14.041 16.4941C14.0762 16.5762 14.1113 16.6523 14.1465 16.7227C14.1816 16.793 14.2109 16.8691 14.2344 16.9512C14.2812 17.0684 14.3164 17.1504 14.3398 17.1973C14.3867 17.3262 14.416 17.4023 14.4277 17.4258C14.4395 17.4492 14.4512 17.4785 14.4629 17.5137C14.498 17.6426 14.5215 17.7246 14.5332 17.7598C14.5449 17.8066 14.5625 17.8418 14.5859 17.8652C14.668 18.0059 14.709 18.0938 14.709 18.1289C14.709 18.1758 14.7148 18.2109 14.7266 18.2344C14.7617 18.3047 14.7734 18.3516 14.7617 18.375C14.75 18.4102 14.75 18.4512 14.7617 18.498C14.832 18.627 14.8848 18.6914 14.9199 18.6914C14.9551 18.8203 14.9785 18.9082 14.9902 18.9551C15.0137 19.002 15.0371 19.043 15.0605 19.0781ZM10.5078 4.59375C10.5898 4.64062 10.6367 4.6582 10.6484 4.64648C10.6602 4.62305 10.6777 4.61133 10.7012 4.61133C10.7832 4.66992 10.8359 4.70508 10.8594 4.7168C10.8828 4.7168 10.9062 4.72852 10.9297 4.75195C10.918 4.81055 10.9062 4.85742 10.8945 4.89258C10.8828 4.92773 10.8652 4.96289 10.8418 4.99805C10.7832 5.0918 10.748 5.14453 10.7363 5.15625C10.7246 5.16797 10.7129 5.18555 10.7012 5.20898C10.6426 5.18555 10.6016 5.19141 10.5781 5.22656C10.5547 5.26172 10.5254 5.26758 10.4902 5.24414C10.3965 5.33789 10.3262 5.4082 10.2793 5.45508C10.1621 5.4668 10.0801 5.51953 10.0332 5.61328C9.96289 5.63672 9.91602 5.64258 9.89258 5.63086C9.86914 5.61914 9.8457 5.61328 9.82227 5.61328C9.78711 5.63672 9.75195 5.66016 9.7168 5.68359C9.69336 5.69531 9.65234 5.68945 9.59375 5.66602C9.42969 5.6543 9.30078 5.68359 9.20703 5.75391C9.11328 5.69531 9.03711 5.70117 8.97852 5.77148C8.91992 5.83008 8.86133 5.87109 8.80273 5.89453C8.69727 6.02344 8.61523 6.11133 8.55664 6.1582C8.50977 6.19336 8.47461 6.24609 8.45117 6.31641C8.39258 6.32812 8.35156 6.35742 8.32812 6.4043C8.30469 6.43945 8.26953 6.46875 8.22266 6.49219C8.22266 6.58594 8.20508 6.63281 8.16992 6.63281C8.14648 6.63281 8.14648 6.65039 8.16992 6.68555C8.08789 6.80273 8.02344 6.87305 7.97656 6.89648C7.97656 6.9668 7.95312 7.01953 7.90625 7.05469C7.85938 7.08984 7.8418 7.1543 7.85352 7.24805C7.83008 7.30664 7.8125 7.34766 7.80078 7.37109C7.78906 7.38281 7.78906 7.40625 7.80078 7.44141L7.67773 7.61719C7.68945 7.67578 7.68359 7.72852 7.66016 7.77539C7.63672 7.82227 7.64844 7.86914 7.69531 7.91602C7.63672 8.00977 7.61328 8.08008 7.625 8.12695C7.63672 8.16211 7.63086 8.20312 7.60742 8.25C7.57227 8.32031 7.55469 8.37891 7.55469 8.42578C7.55469 8.46094 7.55469 8.49023 7.55469 8.51367C7.50781 8.64258 7.48438 8.70703 7.48438 8.70703C7.49609 8.76562 7.49609 8.8125 7.48438 8.84766C7.47266 8.87109 7.4668 8.88867 7.4668 8.90039C7.45508 9.0293 7.44922 9.09961 7.44922 9.11133C7.44922 9.18164 7.44336 9.23438 7.43164 9.26953C7.43164 9.29297 7.4375 9.31641 7.44922 9.33984C7.44922 9.43359 7.44336 9.49805 7.43164 9.5332C7.43164 9.55664 7.41992 9.57422 7.39648 9.58594C7.41992 9.64453 7.41992 9.70312 7.39648 9.76172C7.38477 9.82031 7.39648 9.88477 7.43164 9.95508C7.4082 9.99023 7.39062 10.0371 7.37891 10.0957C7.37891 10.1426 7.40234 10.1836 7.44922 10.2188C7.4375 10.3477 7.42578 10.4297 7.41406 10.4648C7.40234 10.5 7.39648 10.5352 7.39648 10.5703C7.4082 10.6172 7.41992 10.6582 7.43164 10.6934C7.44336 10.7285 7.43164 10.7637 7.39648 10.7988C7.41992 10.916 7.42578 10.998 7.41406 11.0449C7.41406 11.0801 7.40234 11.1094 7.37891 11.1328C7.41406 11.2852 7.41992 11.373 7.39648 11.3965C7.37305 11.4199 7.36133 11.4492 7.36133 11.4844C7.38477 11.543 7.39062 11.6133 7.37891 11.6953C7.37891 11.7656 7.40234 11.8184 7.44922 11.8535C7.4375 11.9941 7.44336 12.0879 7.4668 12.1348C7.49023 12.2637 7.49609 12.334 7.48438 12.3457C7.47266 12.3457 7.47266 12.3516 7.48438 12.3633C7.49609 12.457 7.50781 12.5098 7.51953 12.5215C7.53125 12.5332 7.53711 12.5449 7.53711 12.5566C7.56055 12.6621 7.57227 12.7676 7.57227 12.873C7.57227 12.9668 7.57812 13.0605 7.58984 13.1543C7.625 13.3066 7.63672 13.4121 7.625 13.4707C7.625 13.5293 7.64844 13.5879 7.69531 13.6465C7.68359 13.752 7.67188 13.8457 7.66016 13.9277C7.66016 14.0098 7.68945 14.0742 7.74805 14.1211C7.72461 14.168 7.71289 14.2324 7.71289 14.3145C7.72461 14.3848 7.74219 14.4316 7.76562 14.4551C7.8125 14.584 7.82422 14.6543 7.80078 14.666C7.77734 14.666 7.77148 14.6836 7.7832 14.7188C7.80664 14.7539 7.8125 14.7891 7.80078 14.8242C7.80078 14.8477 7.8125 14.8887 7.83594 14.9473C7.85938 15.0176 7.86523 15.082 7.85352 15.1406C7.8418 15.1992 7.8418 15.2637 7.85352 15.334C7.81836 15.4277 7.8125 15.4863 7.83594 15.5098C7.85938 15.5332 7.88281 15.5566 7.90625 15.5801C7.90625 15.6387 7.90625 15.6973 7.90625 15.7559C7.90625 15.8262 7.91797 15.8848 7.94141 15.9316C7.91797 16.0371 7.90039 16.0898 7.88867 16.0898C7.88867 16.1016 7.88867 16.1191 7.88867 16.1426C7.90039 16.2012 7.91211 16.2422 7.92383 16.2656C7.93555 16.3008 7.93555 16.3477 7.92383 16.4062C7.91211 16.4414 7.90039 16.4766 7.88867 16.5117C7.88867 16.5469 7.87695 16.582 7.85352 16.6172C7.87695 16.6758 7.89453 16.7461 7.90625 16.8281C7.91797 16.9102 7.89453 16.9746 7.83594 17.0215C7.83594 17.0684 7.8418 17.1094 7.85352 17.1445C7.86523 17.1797 7.86523 17.2148 7.85352 17.25C7.8418 17.3086 7.82422 17.3555 7.80078 17.3906C7.77734 17.4258 7.77734 17.4727 7.80078 17.5312C7.76562 17.6016 7.73633 17.6426 7.71289 17.6543C7.68945 17.666 7.68359 17.7012 7.69531 17.7598C7.61328 17.8535 7.56641 17.9121 7.55469 17.9355C7.53125 18.0879 7.49609 18.1641 7.44922 18.1641C7.4375 18.2344 7.39648 18.293 7.32617 18.3398C7.29102 18.4453 7.27344 18.5039 7.27344 18.5156C7.27344 18.5391 7.26172 18.5508 7.23828 18.5508C7.15625 18.668 7.10938 18.7324 7.09766 18.7441C7.08594 18.7559 7.08594 18.7793 7.09766 18.8145C7.03906 18.8965 6.98633 18.9434 6.93945 18.9551C6.89258 18.9785 6.85742 19.0195 6.83398 19.0781C6.75195 19.1953 6.69336 19.2598 6.6582 19.2715C6.63477 19.2949 6.62305 19.3301 6.62305 19.377C6.54102 19.4238 6.48242 19.4941 6.44727 19.5879L6.23633 19.6934C6.20117 19.7285 6.16016 19.7637 6.11328 19.7988C6.07812 19.834 6.04883 19.875 6.02539 19.9219C5.9668 19.9805 5.92578 20.0215 5.90234 20.0449C5.87891 20.0684 5.86133 20.0977 5.84961 20.1328C5.7207 20.168 5.63867 20.1914 5.60352 20.2031C5.58008 20.2148 5.55078 20.2324 5.51562 20.2559C5.49219 20.2793 5.46289 20.3027 5.42773 20.3262C5.4043 20.3496 5.36328 20.3672 5.30469 20.3789C5.16406 20.4961 5.06445 20.5723 5.00586 20.6074C4.94727 20.6543 4.88867 20.707 4.83008 20.7656C4.74805 20.7539 4.68359 20.7656 4.63672 20.8008C4.60156 20.8477 4.56641 20.8887 4.53125 20.9238C4.47266 20.9355 4.43164 20.9531 4.4082 20.9766C4.38477 21.0117 4.34375 21.0352 4.28516 21.0469C4.16797 21.0938 4.10352 21.1113 4.0918 21.0996C4.0332 21.1465 3.97461 21.1934 3.91602 21.2402C3.86914 21.2871 3.79883 21.3164 3.70508 21.3281C3.59961 21.3516 3.51172 21.3633 3.44141 21.3633C3.38281 21.375 3.33594 21.3633 3.30078 21.3281C3.27734 21.3633 3.23633 21.3691 3.17773 21.3457C3.11914 21.334 3.08984 21.3516 3.08984 21.3984C3.05469 21.375 3.01367 21.3574 2.9668 21.3457C2.91992 21.334 2.88477 21.3398 2.86133 21.3633C2.69727 21.3281 2.58008 21.293 2.50977 21.2578C2.43945 21.2344 2.35742 21.2109 2.26367 21.1875C2.01758 21.1289 1.87109 21.041 1.82422 20.9238C1.76562 20.9238 1.72461 20.9062 1.70117 20.8711C1.67773 20.8359 1.625 20.8242 1.54297 20.8359C1.51953 20.8125 1.50195 20.7832 1.49023 20.748C1.4668 20.7246 1.42578 20.7129 1.36719 20.7129C1.32031 20.666 1.29102 20.6191 1.2793 20.5723C1.26758 20.5371 1.23242 20.5195 1.17383 20.5195C1.16211 20.4258 1.15039 20.373 1.13867 20.3613C1.11523 20.3613 1.09766 20.3496 1.08594 20.3262C1.01562 20.1738 0.96875 20.0801 0.945312 20.0449C0.921875 20.0098 0.904297 19.9688 0.892578 19.9219C0.845703 19.8984 0.816406 19.8691 0.804688 19.834C0.78125 19.7988 0.757812 19.7695 0.734375 19.7461C0.6875 19.5117 0.634766 19.3945 0.576172 19.3945C0.576172 19.2656 0.576172 19.125 0.576172 18.9727C0.576172 18.9492 0.576172 18.9141 0.576172 18.8672C0.564453 18.8203 0.570312 18.7852 0.59375 18.7617C0.582031 18.7148 0.570312 18.668 0.558594 18.6211C0.546875 18.5859 0.552734 18.5391 0.576172 18.4805C0.587891 18.4453 0.605469 18.4043 0.628906 18.3574C0.640625 18.3223 0.652344 18.2812 0.664062 18.2344C0.664062 18.1289 0.675781 18.0586 0.699219 18.0234C0.710938 17.9883 0.710938 17.9531 0.699219 17.918C0.734375 17.8945 0.757812 17.8594 0.769531 17.8125C0.769531 17.7773 0.78125 17.7422 0.804688 17.707C0.816406 17.6836 0.833984 17.6484 0.857422 17.6016C0.880859 17.5664 0.880859 17.5254 0.857422 17.4785C0.904297 17.3848 0.945312 17.3262 0.980469 17.3027C1.01562 17.2793 1.02148 17.2559 0.998047 17.2324C1.06836 17.1738 1.12695 17.0977 1.17383 17.0039C1.2207 16.9219 1.28516 16.8516 1.36719 16.793C1.4375 16.6875 1.47852 16.623 1.49023 16.5996C1.50195 16.5879 1.51953 16.5879 1.54297 16.5996C1.60156 16.5527 1.6543 16.5059 1.70117 16.459C1.73633 16.4121 1.7832 16.377 1.8418 16.3535C1.92383 16.2598 1.96484 16.2012 1.96484 16.1777C1.96484 16.1543 1.9707 16.1309 1.98242 16.1074C2.09961 16.1074 2.17578 16.0488 2.21094 15.9316C2.26953 15.9316 2.31055 15.9141 2.33398 15.8789C2.35742 15.8555 2.38672 15.832 2.42188 15.8086C2.53906 15.7383 2.62695 15.6973 2.68555 15.6855C2.74414 15.6738 2.79102 15.6445 2.82617 15.5977C2.89648 15.6094 2.95508 15.5918 3.00195 15.5449C3.04883 15.5098 3.10156 15.5039 3.16016 15.5273C3.23047 15.4805 3.27734 15.4629 3.30078 15.4746C3.32422 15.4863 3.34766 15.4922 3.37109 15.4922C3.46484 15.4805 3.51758 15.4629 3.5293 15.4395C3.55273 15.4277 3.57617 15.4219 3.59961 15.4219C3.74023 15.4219 3.82227 15.4277 3.8457 15.4395C3.86914 15.4512 3.89258 15.457 3.91602 15.457C3.93945 15.457 3.96875 15.4512 4.00391 15.4395C4.05078 15.4277 4.10352 15.4277 4.16211 15.4395C4.30273 15.4863 4.38477 15.5156 4.4082 15.5273C4.43164 15.5508 4.45508 15.5684 4.47852 15.5801C4.57227 15.6621 4.625 15.709 4.63672 15.7207C4.66016 15.7324 4.68359 15.7324 4.70703 15.7207C4.78906 15.791 4.83008 15.832 4.83008 15.8438C4.83008 15.8555 4.83594 15.8672 4.84766 15.8789C4.91797 16.0078 4.96484 16.0781 4.98828 16.0898C5.01172 16.1133 5.03516 16.1426 5.05859 16.1777C5.07031 16.2715 5.09375 16.3359 5.12891 16.3711C5.16406 16.418 5.1875 16.4707 5.19922 16.5293C5.22266 16.5879 5.22852 16.6523 5.2168 16.7227C5.20508 16.793 5.19336 16.8574 5.18164 16.916C5.1582 17.0215 5.14062 17.0859 5.12891 17.1094C5.12891 17.1328 5.11719 17.1562 5.09375 17.1797C5.07031 17.3203 5.03516 17.4141 4.98828 17.4609C4.95312 17.5078 4.94727 17.5723 4.9707 17.6543C4.92383 17.6543 4.88867 17.6602 4.86523 17.6719C4.8418 17.6953 4.8125 17.7129 4.77734 17.7246C4.66016 17.7129 4.5957 17.7188 4.58398 17.7422C4.57227 17.7656 4.55469 17.7891 4.53125 17.8125C4.46094 17.9531 4.38477 18.041 4.30273 18.0762C4.23242 18.1113 4.16211 18.1406 4.0918 18.1641C4.02148 18.0586 3.97461 17.9824 3.95117 17.9355C3.93945 17.9004 3.94531 17.8652 3.96875 17.8301C3.99219 17.6777 4.00977 17.5723 4.02148 17.5137C4.02148 17.4785 4.01562 17.4434 4.00391 17.4082C3.99219 17.373 3.99805 17.3438 4.02148 17.3203C3.99805 17.2734 3.98633 17.2324 3.98633 17.1973C3.98633 17.1621 3.95703 17.1328 3.89844 17.1094C3.85156 16.9922 3.82812 16.9219 3.82812 16.8984C3.83984 16.875 3.83398 16.8516 3.81055 16.8281L3.65234 16.6699C3.52344 16.623 3.45312 16.5996 3.44141 16.5996C3.44141 16.5996 3.42969 16.5938 3.40625 16.582C3.28906 16.5352 3.21875 16.5059 3.19531 16.4941C3.18359 16.4941 3.14844 16.4883 3.08984 16.4766C3.04297 16.4648 2.99609 16.4531 2.94922 16.4414C2.90234 16.4414 2.85547 16.4707 2.80859 16.5293C2.70312 16.5645 2.61523 16.582 2.54492 16.582C2.47461 16.5938 2.41016 16.623 2.35156 16.6699C2.26953 16.7637 2.22266 16.8105 2.21094 16.8105C2.19922 16.8105 2.1875 16.8164 2.17578 16.8281C2.11719 16.957 2.08203 17.0449 2.07031 17.0918C2.07031 17.1387 2.04688 17.1738 2 17.1973C2 17.291 1.9707 17.3672 1.91211 17.4258C1.93555 17.4727 1.93555 17.5137 1.91211 17.5488C1.87695 17.584 1.87109 17.6367 1.89453 17.707C1.84766 17.8828 1.83008 17.9707 1.8418 17.9707C1.80664 18.0527 1.80078 18.1348 1.82422 18.2168C1.84766 18.2988 1.84766 18.3867 1.82422 18.4805C1.84766 18.5977 1.87695 18.6738 1.91211 18.709C1.9707 18.8613 2.02344 18.9961 2.07031 19.1133C2.12891 19.2656 2.19336 19.377 2.26367 19.4473C2.29883 19.5527 2.33398 19.6113 2.36914 19.623C2.4043 19.6348 2.43359 19.6523 2.45703 19.6758C2.51562 19.7461 2.55664 19.793 2.58008 19.8164C2.60352 19.8516 2.63281 19.8867 2.66797 19.9219C2.78516 19.9688 2.85547 19.998 2.87891 20.0098C2.90234 20.0332 2.92578 20.0508 2.94922 20.0625C3.05469 20.1094 3.125 20.1328 3.16016 20.1328C3.19531 20.1328 3.21875 20.1504 3.23047 20.1855C3.32422 20.1855 3.40039 20.209 3.45898 20.2559C3.58789 20.2676 3.66992 20.2676 3.70508 20.2559C3.74023 20.2559 3.76953 20.2676 3.79297 20.291C3.85156 20.2676 3.89844 20.2617 3.93359 20.2734C3.98047 20.2969 4.02734 20.3086 4.07422 20.3086C4.13281 20.2969 4.18555 20.2734 4.23242 20.2383C4.2793 20.2148 4.33203 20.2207 4.39062 20.2559C4.42578 20.2324 4.47266 20.2207 4.53125 20.2207C4.58984 20.2207 4.64258 20.209 4.68945 20.1855C4.8418 20.1035 4.92383 20.0566 4.93555 20.0449C5.06445 19.9629 5.14648 19.9043 5.18164 19.8691C5.2168 19.834 5.25195 19.8047 5.28711 19.7812C5.39258 19.7227 5.45117 19.6699 5.46289 19.623C5.54492 19.5059 5.60352 19.4531 5.63867 19.4648C5.74414 19.3125 5.81445 19.1953 5.84961 19.1133C5.89648 19.0312 5.94922 18.9609 6.00781 18.9023C6.00781 18.8438 6.02539 18.8027 6.06055 18.7793C6.0957 18.7559 6.13086 18.7324 6.16602 18.709C6.17773 18.6504 6.18359 18.6035 6.18359 18.5684C6.18359 18.5332 6.21289 18.5039 6.27148 18.4805C6.2832 18.3398 6.30664 18.2695 6.3418 18.2695C6.33008 18.2109 6.33008 18.1699 6.3418 18.1465C6.35352 18.1348 6.35938 18.1055 6.35938 18.0586C6.40625 18 6.43555 17.9414 6.44727 17.8828C6.4707 17.8359 6.5 17.8066 6.53516 17.7949C6.52344 17.7012 6.52344 17.5957 6.53516 17.4785C6.54688 17.3613 6.57031 17.2676 6.60547 17.1973C6.64062 17.0215 6.64648 16.875 6.62305 16.7578C6.59961 16.6523 6.60547 16.5703 6.64062 16.5117C6.61719 16.4883 6.59961 16.4355 6.58789 16.3535C6.58789 16.2832 6.58203 16.2012 6.57031 16.1074C6.57031 16.002 6.57617 15.9316 6.58789 15.8965C6.59961 15.873 6.58789 15.8496 6.55273 15.8262C6.57617 15.7793 6.57617 15.7383 6.55273 15.7031C6.54102 15.668 6.53516 15.6211 6.53516 15.5625C6.53516 15.5273 6.53516 15.4863 6.53516 15.4395C6.53516 15.4043 6.5293 15.3574 6.51758 15.2988C6.55273 15.1699 6.56445 15.1055 6.55273 15.1055C6.55273 15.1055 6.55273 15.0938 6.55273 15.0703C6.55273 14.9766 6.54102 14.918 6.51758 14.8945C6.49414 14.8594 6.49414 14.8242 6.51758 14.7891C6.49414 14.7539 6.4707 14.7305 6.44727 14.7188C6.43555 14.6953 6.42383 14.6602 6.41211 14.6133C6.45898 14.4961 6.4707 14.4316 6.44727 14.4199C6.42383 14.3965 6.42383 14.3672 6.44727 14.332C6.43555 14.2266 6.41797 14.1562 6.39453 14.1211C6.38281 14.0859 6.37109 14.0508 6.35938 14.0156C6.34766 13.9336 6.34766 13.8574 6.35938 13.7871C6.37109 13.7051 6.35352 13.6465 6.30664 13.6113C6.3418 13.541 6.34766 13.459 6.32422 13.3652C6.28906 13.2598 6.27734 13.207 6.28906 13.207C6.30078 13.207 6.30078 13.1953 6.28906 13.1719C6.28906 13.1133 6.2832 13.0547 6.27148 12.9961C6.27148 12.9258 6.26562 12.8613 6.25391 12.8027C6.23047 12.6152 6.20703 12.5098 6.18359 12.4863C6.18359 12.2988 6.17188 12.1582 6.14844 12.0645C6.13672 11.9707 6.14258 11.8945 6.16602 11.8359C6.20117 11.6953 6.19531 11.5605 6.14844 11.4316C6.10156 11.3027 6.11328 11.2031 6.18359 11.1328C6.18359 11.0508 6.17188 10.9746 6.14844 10.9043C6.125 10.8223 6.11328 10.7402 6.11328 10.6582C6.08984 10.4707 6.10156 10.3066 6.14844 10.166C6.14844 10.084 6.14844 10.0254 6.14844 9.99023C6.14844 9.94336 6.1543 9.90234 6.16602 9.86719C6.16602 9.72656 6.17188 9.65625 6.18359 9.65625C6.19531 9.64453 6.20117 9.62695 6.20117 9.60352C6.20117 9.50977 6.21289 9.44531 6.23633 9.41016C6.21289 9.30469 6.20117 9.24609 6.20117 9.23438C6.21289 9.22266 6.22461 9.21094 6.23633 9.19922C6.24805 9.07031 6.25391 9.00586 6.25391 9.00586C6.28906 8.92383 6.30078 8.86523 6.28906 8.83008C6.28906 8.79492 6.29492 8.75977 6.30664 8.72461L6.3418 8.51367C6.35352 8.47852 6.36523 8.44336 6.37695 8.4082C6.38867 8.36133 6.38867 8.30859 6.37695 8.25C6.40039 8.16797 6.41797 8.11523 6.42969 8.0918C6.44141 8.06836 6.42969 8.05078 6.39453 8.03906C6.45312 7.91016 6.48242 7.8457 6.48242 7.8457C6.54102 7.75195 6.58203 7.66992 6.60547 7.59961C6.64062 7.5293 6.6582 7.48242 6.6582 7.45898C6.66992 7.43555 6.68164 7.40625 6.69336 7.37109C6.76367 7.27734 6.81055 7.21289 6.83398 7.17773C6.88086 7.08398 6.91602 7.01953 6.93945 6.98438C6.96289 6.94922 6.98633 6.91406 7.00977 6.87891C7.06836 6.83203 7.10352 6.79688 7.11523 6.77344C7.13867 6.75 7.15039 6.72656 7.15039 6.70312C7.25586 6.59766 7.31445 6.5332 7.32617 6.50977C7.33789 6.48633 7.36719 6.46875 7.41406 6.45703C7.4375 6.39844 7.4668 6.35156 7.50195 6.31641C7.54883 6.28125 7.57812 6.23438 7.58984 6.17578C7.69531 6.11719 7.74805 6.08203 7.74805 6.07031C7.75977 6.05859 7.77734 6.05273 7.80078 6.05273C7.87109 5.9707 7.90625 5.92383 7.90625 5.91211C7.91797 5.88867 7.93555 5.87109 7.95898 5.85938C8.06445 5.78906 8.12305 5.74805 8.13477 5.73633C8.1582 5.71289 8.18164 5.69531 8.20508 5.68359C8.28711 5.60156 8.33984 5.55469 8.36328 5.54297C8.39844 5.51953 8.42773 5.49609 8.45117 5.47266C8.54492 5.39062 8.59766 5.34375 8.60938 5.33203C8.62109 5.30859 8.64453 5.30273 8.67969 5.31445C8.79688 5.23242 8.86133 5.18555 8.87305 5.17383C8.89648 5.16211 8.91406 5.14453 8.92578 5.12109C8.98438 5.10938 9.03125 5.08594 9.06641 5.05078C9.10156 5.01562 9.14844 4.98633 9.20703 4.96289C9.33594 4.89258 9.40625 4.86328 9.41797 4.875C9.44141 4.875 9.45898 4.86328 9.4707 4.83984C9.61133 4.80469 9.6875 4.78125 9.69922 4.76953C9.78125 4.71094 9.83984 4.6875 9.875 4.69922C9.91016 4.69922 9.93945 4.69922 9.96289 4.69922C10.1152 4.64062 10.2148 4.61133 10.2617 4.61133C10.3203 4.61133 10.3789 4.60547 10.4375 4.59375H10.5078Z" fill="black"/>
</svg>
